# xmcd
#
# Track frame offsets:
#	150
#	18134
#	37454
#	49086
#	61903
#	78753
#	95397
#	108416
#	126185
#	137190
# Disc length: 2047 seconds
# Revision: 1
# Processed by: cddbd v1.5.1PL2 Copyright (c) Steve Scherf et al.
#
# Submitted via: libkcddb 0.31
#
DISCID=8107fd0a
DTITLE=Mong Cha - Chutdi 1
DYEAR=2004
DGENRE=Country
TTITLE0=Rongo
TTITLE1=Plim Ponchai
TTITLE2=Rak Seb Seb
TTITLE3=Kik Kik
TTITLE4=Fen Chi yer
TTITLE5=Kib Ke
TTITLE6=Kuy Tuk Lo Tuk Chai
TTITLE7=Ko Kar Rik
TTITLE8=Pong Acharai
TTITLE9=Pe Su Chon Rak
EXTD=
EXTT0=
EXTT1=
EXTT2=
EXTT3=
EXTT4=
EXTT5=
EXTT6=
EXTT7=
EXTT8=
EXTT9=
PLAYORDER=
